<?xml version="1.0" encoding="utf-8"?>
<!-- Generator: Adobe Illustrator 18.0.0, SVG Export Plug-In . SVG Version: 6.00 Build 0)  -->
<!DOCTYPE svg PUBLIC "-//W3C//DTD SVG 1.1//EN" "http://www.w3.org/Graphics/SVG/1.1/DTD/svg11.dtd">
<svg version="1.1" id="Layer_1" xmlns="http://www.w3.org/2000/svg" xmlns:xlink="http://www.w3.org/1999/xlink" x="0px" y="0px"
	 width="150px" height="150px" viewBox="0 0 150 150" enable-background="new 0 0 150 150" xml:space="preserve">
<path fill="#6E8F8B" d="M11.4,131.3c-0.6,0-1-0.5-1-1c0-0.6,0.4-1,1-1h90.9c0.6,0,1,0.4,1,1c0,0.5-0.4,1-1,1H11.4z M64.8,136.8
	c-0.6,0-1-0.4-1-1s0.5-1,1-1h62.9c0.6,0,1,0.4,1,1s-0.4,1-1,1H64.8z M134.1,136.8c-0.6,0-1-0.4-1-1s0.4-1,1-1h7.9c0.6,0,1,0.4,1,1
	s-0.4,1-1,1H134.1z M7.9,136.7c-0.6,0-1-0.4-1-1s0.4-1,1-1h29.8c0.6,0,1,0.4,1,1c0,0.5-0.4,1-1,1H7.9z M55.8,113.5L55.8,113.5
	L55.8,113.5c0-0.6,0.4-1,1-1l0,0h7.4v-9.4h-7.4l0,0l0,0l0,0c-0.2,0-0.5-0.1-0.7-0.3l0,0c0,0,0-0.1-0.1-0.1c0,0,0,0-0.1-0.1v-0.1
	c0,0,0-0.1-0.1-0.1c0-0.1,0-0.1-0.1-0.2l0,0c0-0.1,0-0.1,0-0.2l0,0V90.6l0,0l0,0c0-0.5,0.4-1,1-1l0,0h7.4v-9.4h-7.4l0,0l0,0l0,0
	c-0.2,0-0.5-0.1-0.7-0.3l0,0c0,0,0-0.1-0.1-0.1c0,0,0,0-0.1-0.1v-0.1c0,0,0-0.1-0.1-0.1c0-0.1,0-0.1-0.1-0.2l0,0c0-0.1,0-0.1,0-0.2
	l0,0V67.7l0,0l0,0c0-0.5,0.4-1,1-1l0,0H64v-7.8H19.6l-7.9,7.9l-0.4-0.4V71l0,0v2l0,0v11.6l0,0v2l0,0v11.6l0,0v2l0,0v14.2l0.4-0.4
	l7.9,7.9h36.2C55.8,121.9,55.8,113.5,55.8,113.5z M104.8,59.1H66.1v8.8l0,0l0,0l0,0c0,0.2-0.1,0.5-0.2,0.6c0,0,0,0,0,0.1l0,0
	c-0.2,0.2-0.4,0.3-0.7,0.3l0,0h-7.4v9.4h7.4l0,0l0,0c0.2,0,0.5,0.1,0.7,0.3l0,0l0,0c0.2,0.2,0.3,0.4,0.3,0.7l0,0l0,0v11.4
	c0,0.6-0.4,1-1,1c0,0,0,0-0.1,0h-7.3v9.4h7.4l0,0l0,0c0.2,0,0.5,0.1,0.7,0.3l0,0l0,0c0.2,0.2,0.3,0.4,0.3,0.7l0,0l0,0v11.4
	c0,0.6-0.4,1-1,1c0,0,0,0-0.1,0h-7.3v7.5h47.2l7.9-7.9V67L104.8,59.1z M41.8,32.3h58.7v8.9H41.8V32.3z M20.9,19.9H25v33.7h-4.2V19.9
	z M26.8,19.9v33.7h13.3V42.2l0,0V31.5l0,0V20.1H26.8V19.9z M28.4,15c-0.5,0-0.9-0.4-0.9-0.9s0.4-0.9,0.9-0.9h19.8
	c0.5,0,0.9,0.4,0.9,0.9v9.6h24c0.5,0,0.9,0.4,0.9,0.9s-0.4,0.9-0.9,0.9H48.2c-0.5,0-0.9-0.4-0.9-0.9V15H28.4L28.4,15z M136.8,122
	V19.9h-16.7v11.9h5.4c0.6,0,1.1,0.5,1.1,1.1s-0.5,1.1-1.1,1.1h-5.4v10.8h9.8c0.6,0,1.1,0.5,1.1,1.1s-0.5,1.1-1.1,1.1h-9.8v10.8h5.4
	c0.6,0,1.1,0.5,1.1,1.1s-0.5,1.1-1.1,1.1h-5.4v10.8h9.8c0.6,0,1.1,0.5,1.1,1.1s-0.5,1.1-1.1,1.1h-9.8v10.8h5.4
	c0.6,0,1.1,0.5,1.1,1.1s-0.5,1.1-1.1,1.1h-5.4v10.8h9.8c0.6,0,1.1,0.5,1.1,1.1s-0.5,1.1-1.1,1.1h-9.8v10.8h5.4
	c0.6,0,1.1,0.5,1.1,1.1s-0.5,1.1-1.1,1.1h-5.4v10.1L136.8,122L136.8,122z M139.1,19.9h3.9V122h-3.9V19.9z"/>
</svg>
