<?xml version="1.0" encoding="utf-8"?>
<!-- Generator: Adobe Illustrator 18.0.0, SVG Export Plug-In . SVG Version: 6.00 Build 0)  -->
<!DOCTYPE svg PUBLIC "-//W3C//DTD SVG 1.1//EN" "http://www.w3.org/Graphics/SVG/1.1/DTD/svg11.dtd">
<svg version="1.1" id="Layer_1" xmlns="http://www.w3.org/2000/svg" xmlns:xlink="http://www.w3.org/1999/xlink" x="0px" y="0px"
	 width="150px" height="150px" viewBox="0 0 150 150" enable-background="new 0 0 150 150" xml:space="preserve">
<path fill="#B19E33" d="M70.3,19.9L15.8,55.2H11l59.4-38l60.4,38h-4.4L70.3,19.9z M7.8,131h96.9c0.6,0,1-0.5,1-1c0-0.6-0.5-1-1-1
	H7.8c-0.6,0-1,0.5-1,1S7.3,131,7.8,131z M8.1,55.1l62.4-39.9l13.3,8.3c0.5,0.3,1.1,0.2,1.4-0.3c0.3-0.5,0.2-1.1-0.3-1.4l-13.8-8.7
	c-0.4-0.2-0.8-0.2-1.1,0L7,53.5c-0.5,0.3-0.6,0.9-0.3,1.4C6.9,55.2,7.6,55.4,8.1,55.1z M131.7,134.8H64.6c-0.6,0-1,0.5-1,1
	s0.5,1,1,1h67.1c0.6,0,1-0.5,1-1C132.8,135.3,132.3,134.8,131.7,134.8z M147,134.8h-8.4c-0.6,0-1,0.5-1,1s0.5,1,1,1h8.4
	c0.6,0,1-0.5,1-1S147.5,134.8,147,134.8z M35.8,134.7H4c-0.6,0-1,0.5-1,1c0,0.6,0.5,1,1,1h31.8c0.6,0,1-0.5,1-1
	S36.4,134.7,35.8,134.7z M23.9,72.3v10.4h10.4v-2.6h21.4v2.6h17.1V70.5H23.9V72.3L23.9,72.3z M119.1,113.5H23.9v11h95.2v-1.8l0,0
	V113.5z M45.9,68.5V57.3h-22v11.2H45.9z M119.1,111.4V99.2H108v2.4H86.6v-2.4H55.7v2.4H34.3v-2.4H23.9l0,0l0,0v2.1l0,0v10.1
	L119.1,111.4L119.1,111.4z M34.3,89.8V88v-3.1H23.9v1.9l0,0v10.3h10.4v-3.8v-1.4C34.3,91.9,34.3,89.8,34.3,89.8z M86.6,89.8V88v-3.1
	H55.7v3.2v1.8V92v1.3v3.8h30.9v-3.8v-1.4V89.8z M108,84.9v3.2v1.8V92v1.3v3.8h11.1V84.9H108L108,84.9z"/>
</svg>
