<?xml version="1.0" encoding="utf-8"?>
<!-- Generator: Adobe Illustrator 18.0.0, SVG Export Plug-In . SVG Version: 6.00 Build 0)  -->
<!DOCTYPE svg PUBLIC "-//W3C//DTD SVG 1.1//EN" "http://www.w3.org/Graphics/SVG/1.1/DTD/svg11.dtd">
<svg version="1.1" id="Layer_1" xmlns="http://www.w3.org/2000/svg" xmlns:xlink="http://www.w3.org/1999/xlink" x="0px" y="0px"
	 width="150px" height="150px" viewBox="0 0 150 150" enable-background="new 0 0 150 150" xml:space="preserve">
<path fill="#997BAC" d="M122.7,19v42.9h4.8V18.8c0-1.6-0.6-3.1-1.7-4.1c-1-1.1-2.5-1.7-4.1-1.7H9.8c-1.6,0-3.1,0.6-4.1,1.7
	c-1,1-1.7,2.5-1.7,4.1v80.6c0,1.6,0.7,3.1,1.7,4.1c1,1.1,2.5,1.7,4.1,1.7h111.9c1.6,0,3.1-0.6,4.1-1.7c1.1-1,1.7-2.5,1.7-4.1V77.1
	h-4.8v7.6c0,0.6-0.5,1.2-1.2,1.2H9.7c-0.6,0-1.1-0.5-1.1-1.2V19c0-0.6,0.5-1.2,1.1-1.2h111.8C122.2,17.9,122.7,18.4,122.7,19
	 M79.2,107.5H52.3l-5.4,20.4h37.6L79.2,107.5z M28.7,130.4v5.9h74.2v-5.9C78.1,130.4,53.4,130.4,28.7,130.4z M66.8,98.1
	c-0.3-0.3-0.6-0.4-1-0.4c-0.4,0-0.8,0.2-1,0.4c-0.2,0.2-0.4,0.6-0.4,1s0.2,0.8,0.4,1c0.2,0.2,0.6,0.4,1,0.4c0.4,0,0.7-0.1,1-0.4V100
	c0.3-0.3,0.4-0.6,0.4-1C67.2,98.7,67.1,98.5,66.8,98.1L66.8,98.1z M65.7,95.4c1,0,2,0.4,2.7,1.1l0.1,0.1c0.6,0.7,1,1.6,1,2.6
	s-0.4,2-1.1,2.7l-0.1,0.1c-0.7,0.6-1.6,1-2.6,1s-2-0.4-2.7-1.1s-1.1-1.6-1.1-2.7c0-1,0.4-2,1.1-2.7C63.8,95.7,64.7,95.4,65.7,95.4z
	 M81.5,77.1c-0.2,0-0.5-0.1-0.6-0.2l0,0l-10.1-6.3c-0.2-0.1-0.3-0.2-0.4-0.4c-0.3-0.5-0.2-1.2,0.4-1.6L81,62.2
	c0.2-0.1,0.4-0.2,0.7-0.2h38.8V20.1H10.9v63.4h109.5V77H91h-0.1h-0.1L81.5,77.1L81.5,77.1L81.5,77.1z M73.5,69.5l8.4,5.3h7.9v-4.4
	c0-0.6,0.5-1.2,1.2-1.2c0.6,0,1.1,0.5,1.1,1.2v4.4h29.4l0,0h7.1l0,0h6.4v-4.1h-31.2c-0.6,0-1.2-0.5-1.2-1.2s0.5-1.2,1.2-1.2h31.3
	v-4.1H81.9L73.5,69.5z M137.4,64.2v10.5h1.7V64.2H137.4L137.4,64.2z M141.4,64.2v10.5h3.8c1,0,2-0.4,2.7-1.1
	c0.7-0.7,1.1-1.6,1.1-2.7v-3c0-1-0.4-2-1.1-2.7c-0.7-0.7-1.6-1.1-2.7-1.1L141.4,64.2L141.4,64.2z M50.9,46H41v9.9h9.9V46z M41,68
	h9.9v-9.9H41V68z M63,46h-9.9v9.9H63V46z M53.1,68H63v-9.9h-9.9V68z M64,70.1H52l0,0l0,0H40c-0.6,0-1.1-0.5-1.1-1.1V57l0,0l0,0V45
	c0-0.6,0.5-1.1,1.1-1.1h12l0,0l0,0h12c0.6,0,1.1,0.5,1.1,1.1v12l0,0l0,0v12C65.1,69.6,64.6,70.1,64,70.1z M78.5,42.5
	c-0.3,0.5-1,0.6-1.5,0.3l-25-16l-25,16c-0.5,0.3-1.2,0.2-1.5-0.3s-0.2-1.2,0.3-1.5l25.4-16.4c0.2-0.2,0.5-0.2,0.7-0.2
	c0.3,0,0.5,0,0.7,0.2L78,41C78.7,41.2,78.8,42,78.5,42.5z M69.3,45c0-0.3,0.5-0.9,1.1-0.9s1.1,0.6,1.1,0.9v18.1
	c0,0.3-0.5,0.9-1.1,0.9s-1.1-0.6-1.1-0.9V45z M32.3,45.2c0-0.3,0.5-0.9,1.1-0.9c0.6,0,1.1,0.6,1.1,0.9V72c0,0.3-0.5,0.9-1.1,0.9
	c-0.6,0-1.1-0.6-1.1-0.9V45.2z M36.9,77c-0.3,0-0.9-0.5-0.9-1.1s0.6-1.1,0.9-1.1h29.6c0.3,0,0.9,0.5,0.9,1.1S66.8,77,66.5,77H36.9z"
	/>
</svg>
