<?xml version="1.0" encoding="utf-8"?>
<!DOCTYPE svg PUBLIC "-//W3C//DTD SVG 1.1//EN" "http://www.w3.org/Graphics/SVG/1.1/DTD/svg11.dtd">
<svg version="1.1" id="Layer_1" xmlns="http://www.w3.org/2000/svg" xmlns:xlink="http://www.w3.org/1999/xlink" x="0px" y="0px"
	 width="150px" height="150px" viewBox="0 0 150 150" enable-background="new 0 0 150 150" xml:space="preserve">
<path fill="#57A7A2" d="M139.4,114.2V30.8H52.8L24.7,58.8v55.4H139.4z M67.5,12.6H5.3v61.8L67.5,12.6z M39.2,27.6H20.5v18.7
	L39.2,27.6z M19.4,25.1l23.1,0c0.8,0,1.6,1.3,0.7,2.2L20.1,50.2c-0.5,0.5-1.2,0.5-1.7,0c-0.3-0.3-0.4-0.6-0.3-1V26.4
	C18.1,25.8,18.7,25.1,19.4,25.1z M130.4,137v-15.6h-101V137h4.3v-6.7c0-0.6,0.5-1.2,1.2-1.2c0.7,0,1.2,0.5,1.2,1.2v6.7h3.7v-3.4
	c0-0.6,0.5-1.2,1.2-1.2c0.7,0,1.2,0.5,1.2,1.2v3.4h3.5v-6.7c0-0.6,0.5-1.2,1.2-1.2s1.2,0.5,1.2,1.2v6.7h3.7v-3.4
	c0-0.6,0.5-1.2,1.2-1.2c0.7,0,1.2,0.5,1.2,1.2v3.4h3.5v-6.7c0-0.6,0.5-1.2,1.2-1.2c0.7,0,1.2,0.5,1.2,1.2v6.7h3.7v-3.4
	c0-0.6,0.5-1.2,1.2-1.2c0.7,0,1.2,0.5,1.2,1.2v3.4h3.5v-6.7c0-0.6,0.5-1.2,1.2-1.2s1.2,0.5,1.2,1.2v6.7h3.7v-3.4
	c0-0.6,0.5-1.2,1.2-1.2c0.7,0,1.2,0.5,1.2,1.2v3.4h3.5v-6.7c0-0.6,0.5-1.2,1.2-1.2c0.7,0,1.2,0.5,1.2,1.2v6.7h3.7v-3.4
	c0-0.6,0.5-1.2,1.2-1.2c0.7,0,1.2,0.5,1.2,1.2v3.4h3.5v-6.7c0-0.6,0.5-1.2,1.2-1.2c0.7,0,1.2,0.5,1.2,1.2v6.7h3.7v-3.4
	c0-0.6,0.5-1.2,1.2-1.2c0.6,0,1.2,0.5,1.2,1.2v3.4h3.5v-6.7c0-0.6,0.5-1.2,1.2-1.2c0.7,0,1.2,0.5,1.2,1.2v6.7h3.7v-3.4
	c0-0.6,0.5-1.2,1.2-1.2c0.6,0,1.2,0.5,1.2,1.2v3.4h3.5v-6.7c0-0.6,0.5-1.2,1.2-1.2c0.7,0,1.2,0.5,1.2,1.2v6.7h3.7v-3.4
	c0-0.6,0.5-1.2,1.2-1.2s1.2,0.5,1.2,1.2v3.4H130.4z M114.1,68.9h-12.4v11.6c3.3-0.3,6.3-1.7,8.5-4C112.3,74.5,113.7,71.9,114.1,68.9
	z M124.7,91.8V68.9h-8.2c-0.5,3.6-2.1,6.9-4.6,9.3c-2.7,2.6-6.2,4.4-10.2,4.7v8.9L124.7,91.8L124.7,91.8z M99.3,80.5V67.7
	c0-0.6,0.5-1.2,1.2-1.2h13.8c-0.1-3.6-1.6-6.9-4-9.3c-2.5-2.5-5.9-4-9.7-4c-3.8,0-7.2,1.5-9.7,4c-2.5,2.5-4,5.9-4,9.7
	c0,3.8,1.5,7.2,4,9.7C93,78.8,96,80.2,99.3,80.5z M30.9,75.3c0-0.6,0.5-1.2,1.2-1.2c0.7,0,1.2,0.5,1.2,1.2v29.3h31.4
	c0.6,0,1.2,0.5,1.2,1.2c0,0.6-0.5,1.2-1.2,1.2H32.1c-0.6,0-1.2-0.5-1.2-1.2V75.3z M127.1,67.7v25.2c0,0.6-0.5,1.2-1.2,1.2h-25.4
	c-0.7,0-1.2-0.5-1.2-1.2V82.8c-4-0.3-7.6-2-10.2-4.6c-2.9-2.9-4.7-6.9-4.7-11.3c0-4.4,1.8-8.4,4.7-11.3c2.9-2.9,7-4.7,11.4-4.7
	c4.4,0,8.5,1.8,11.4,4.7c2.8,2.8,4.6,6.7,4.7,11h9.3C126.6,66.5,127.1,67.1,127.1,67.7z M104.1,26.4c-0.7,0-1.2-0.5-1.2-1.2
	c0-0.6,0.5-1.2,1.2-1.2h40.8c0.7,0,1.2,0.5,1.2,1.2v53.6c0,0.6-0.5,1.2-1.2,1.2c-0.6,0-1.2-0.5-1.2-1.2V26.4H104.1z"/>
</svg>
