<?xml version="1.0" encoding="utf-8"?>
<!-- Generator: Adobe Illustrator 18.0.0, SVG Export Plug-In . SVG Version: 6.00 Build 0)  -->
<!DOCTYPE svg PUBLIC "-//W3C//DTD SVG 1.1//EN" "http://www.w3.org/Graphics/SVG/1.1/DTD/svg11.dtd">
<svg version="1.1" id="Layer_2" xmlns="http://www.w3.org/2000/svg" xmlns:xlink="http://www.w3.org/1999/xlink" x="0px" y="0px"
	 width="200px" height="200px" viewBox="0 0 200 200" enable-background="new 0 0 200 200" xml:space="preserve">
<path fill="#FBF5E8" d="M136.4,82.1l-36.2-16.8L63.1,82.1H47.9l52.3-27l50.7,27H136.4z"/>
<path fill="#FBF5E8" d="M124.4,85.9l-24.2-7.6l-24.9,7.6H63.8L100.2,70l35.7,15.9H124.4z"/>
<path fill="#FBF5E8" d="M100.2,81.7L124,90H76.4L100.2,81.7z"/>
<path fill="#FBF5E8" d="M31.2,112.7h1.9v8.8h-1.9v2.7h6.3v-2.7h-1.3v-3h1.9l2.3,3h-1.6v2.7h7.3v-2.7h-2.4l-3.6-4.8l3.2-4h2.3V110
	h-6.4v2.7h1l-2.3,3.2h-1.6v-3.1h1.3v-2.7h-6.3v2.6H31.2z M55,123.8l3,1l0.8-2.5l-1.9-0.6v-3.9c0-1.6-0.4-2.8-1.3-3.7
	c-0.9-0.8-2.1-1.3-3.7-1.3c-1.5,0-2.9,0.2-4.2,0.7l-0.5,2.7l2.5,0.3l0.2-1.1c0.6-0.2,1.2-0.3,1.8-0.3s1.1,0.2,1.5,0.7s0.6,1.1,0.6,2
	h-2.5c-1.5,0-2.6,0.3-3.4,0.9c-0.8,0.6-1.2,1.4-1.2,2.6c0,1.1,0.4,2,1.2,2.6s2,0.9,3.5,0.9C52.7,124.6,53.8,124.3,55,123.8L55,123.8
	z M51.4,119.7h2.5v2.1c-0.7,0.4-1.5,0.6-2.3,0.6c-1.2,0-1.7-0.4-1.7-1.3c0-0.5,0.1-0.8,0.4-1.1C50.6,119.8,50.9,119.7,51.4,119.7
	L51.4,119.7z M58.8,129.5h7.1v-2.4h-2v-2.7c0.6,0.2,1.3,0.2,2.1,0.2c1.2,0,2.2-0.2,3.1-0.7s1.6-1.2,2-2.1c0.5-0.9,0.7-2,0.7-3.2
	c0-1.8-0.5-3.3-1.5-4.3s-2.3-1.6-4-1.6c-0.5,0-1.1,0.1-1.7,0.3c-0.6,0.2-1.2,0.5-1.7,0.9l-3.5-1.2l-0.8,2.4l2.3,0.8v11h-2
	L58.8,129.5L58.8,129.5z M65.9,122.3c-0.8,0-1.5-0.1-2.1-0.4v-5.8c0.3-0.3,0.7-0.5,1-0.6c0.4-0.2,0.8-0.2,1.2-0.2
	c0.8,0,1.4,0.3,1.9,0.9c0.4,0.6,0.7,1.5,0.7,2.6s-0.2,2-0.7,2.6S66.7,122.3,65.9,122.3L65.9,122.3z M83.7,122.8l-1-1.8
	c-1.1,0.8-2.3,1.3-3.6,1.3c-0.9,0-1.6-0.2-2.2-0.6s-1-1-1-1.8h8.4c0.1-0.5,0.1-1,0.1-1.5c0-1.1-0.2-2.1-0.7-2.9s-1.1-1.5-2-1.9
	c-0.9-0.5-1.9-0.7-3-0.7s-2.1,0.2-3,0.7s-1.5,1.2-2,2.1c-0.6,0.8-0.8,1.9-0.8,3.1c0,1.1,0.3,2.2,0.8,3c0.5,0.9,1.2,1.6,2.2,2.1
	c0.9,0.5,2,0.7,3.3,0.7c0.8,0,1.6-0.2,2.4-0.5C82.2,123.9,83,123.4,83.7,122.8L83.7,122.8z M81.2,117.8h-5.4c0-0.7,0.3-1.3,0.9-1.8
	c0.5-0.5,1.2-0.7,1.9-0.7c0.8,0,1.4,0.2,1.9,0.7C81,116.4,81.2,117,81.2,117.8L81.2,117.8z M98,115.7v-2.4H86v2.4h1.9l-0.1,2
	c-0.1,1.1-0.2,2-0.4,2.6c-0.2,0.6-0.5,1-0.9,1.3s-1.1,0.4-1.9,0.3v2.4c0.4,0,0.7,0,0.9,0c1.6,0,2.8-0.5,3.5-1.5s1.2-2.5,1.3-4.6
	l0.2-2.6H93v6h-1v2.4h6v-2.4h-2v-6L98,115.7L98,115.7z M99.8,124.2h8.4c1.1,0,2-0.3,2.6-0.9s0.9-1.5,0.9-2.5c0-2.3-1.6-3.5-4.8-3.5
	H105v-1.5h2.1v-2.4h-7.4v2.4h2.1v6h-2.1v2.4H99.8z M105,121.7v-2.2h2.1c1,0,1.5,0.3,1.5,1c0,0.4-0.1,0.6-0.4,0.8
	c-0.3,0.2-0.7,0.3-1.2,0.3L105,121.7L105,121.7z M119.9,115.3l0.4,2l2.6-0.6l-0.7-3.3c-1.2-0.5-2.5-0.7-3.7-0.7
	c-2,0-3.4,0.5-4.4,1.5s-1.5,2.5-1.5,4.5c0,1.9,0.5,3.3,1.5,4.3s2.5,1.5,4.3,1.5c0.9,0,1.6-0.2,2.3-0.5c0.7-0.3,1.5-0.8,2.3-1.4
	l-1.2-1.8c-1.2,0.8-2.3,1.2-3.4,1.2c-0.8,0-1.5-0.3-2-0.9s-0.8-1.4-0.8-2.5c0-1.2,0.2-2.2,0.7-2.8s1.2-0.9,2.1-0.9
	C118.9,115.1,119.4,115.2,119.9,115.3L119.9,115.3z M124.3,115.7h2v6h-2v2.4h5.8v-2.4h-0.7V120h1.3l3,4.2h3.7v-2.4h-2l-2.2-3
	l2.3-3.1h1.8v-2.4h-6v2.4h1.2l-1.4,1.9h-1.7v-1.9h0.7v-2.4h-5.8C124.3,113.3,124.3,115.7,124.3,115.7z M138.8,115.7h2v6h-2v2.4h4.9
	l4.2-7.5v5.1H147v2.4h5.9v-2.4h-2v-6h2v-2.4H148l-4.2,7.3v-4.9h0.9v-2.4h-5.9V115.7z M154.7,115.7h2v6h-2v2.4h4.9l4.2-7.5v5.1h-0.9
	v2.4h5.9v-2.4h-2v-6h2v-2.4h-4.9l-4.2,7.3v-4.9h0.9v-2.4h-5.9V115.7z M162,111.5c1.2,0,2.2-0.3,3-1c0.8-0.6,1.2-1.5,1.3-2.6l-2-0.2
	c0,0.6-0.2,1-0.6,1.4c-0.4,0.3-1,0.5-1.7,0.5s-1.3-0.2-1.7-0.5s-0.6-0.8-0.6-1.4l-2,0.2c0.1,1.1,0.6,1.9,1.3,2.6
	C159.8,111.2,160.8,111.5,162,111.5L162,111.5z M78.5,144.5h-1.9v5.9h2.5v-3.2h9.7v3.2h2.6v-5.9h-2.3v-8.8h2.3V133H77.9v2.7h2.5
	l-0.3,4.1c-0.1,1-0.2,1.9-0.5,2.6C79.3,143.1,78.9,143.8,78.5,144.5L78.5,144.5z M81.1,144.5c0.4-0.7,0.8-1.3,1-2
	c0.2-0.6,0.4-1.4,0.5-2.3l0.4-4.5h2.9v8.8H81.1z M98.3,135.8c-1.8,0-3.2,0.5-4.2,1.6c-1,1-1.5,2.5-1.5,4.4s0.5,3.3,1.5,4.4
	c1,1,2.4,1.5,4.2,1.5c1.9,0,3.3-0.5,4.3-1.5s1.5-2.5,1.5-4.4s-0.5-3.4-1.5-4.4C101.6,136.3,100.1,135.8,98.3,135.8L98.3,135.8z
	 M98.3,138.3c0.9,0,1.6,0.3,2.1,0.9c0.5,0.6,0.7,1.5,0.7,2.6s-0.2,2-0.7,2.6s-1.2,0.9-2.1,0.9s-1.6-0.3-2.1-0.9
	c-0.5-0.6-0.7-1.5-0.7-2.6s0.2-2,0.7-2.6C96.7,138.6,97.4,138.3,98.3,138.3L98.3,138.3z M123.5,136.2h-6.4l-2.6,6.4l-2.9-6.4h-6.4
	v2.4h2v6h-2v2.4h5.9v-2.4h-0.9v-5.8l3.2,7h2.1l3.1-7.6v6.5h-1v2.4h5.9v-2.4h-2v-6h2C123.5,138.7,123.5,136.2,123.5,136.2z"/>
<path fill="#FBF5E8" d="M75,99.5h1.1l-2.2,2.7l2.5,2.9h-1.1l-1.9-2.5h-0.7v2.5h-1v-5.7h1v2.5h0.5L75,99.5z M80.3,105.2
	c-0.4,0-0.8-0.1-1.2-0.3c-0.4-0.1-0.7-0.4-1-0.7c-0.3-0.3-0.4-0.5-0.5-1c-0.1-0.4-0.3-0.7-0.3-1.1s0.1-0.8,0.3-1.1
	c0.1-0.4,0.3-0.7,0.5-1c0.3-0.3,0.5-0.5,1-0.7c0.4-0.1,0.7-0.3,1.2-0.3c0.4,0,0.8,0.1,1.2,0.3c0.4,0.1,0.7,0.4,1,0.7
	c0.3,0.3,0.4,0.5,0.5,1c0.1,0.4,0.3,0.7,0.3,1.1s-0.1,0.8-0.3,1.1c-0.1,0.4-0.3,0.7-0.5,1c-0.3,0.3-0.5,0.5-1,0.7
	C81.1,105.2,80.7,105.2,80.3,105.2z M78.4,102.3c0,0.3,0,0.5,0.1,0.8c0.1,0.3,0.3,0.4,0.4,0.7c0.1,0.1,0.4,0.3,0.5,0.4
	c0.1,0.1,0.4,0.1,0.7,0.1c0.3,0,0.5,0,0.7-0.1s0.4-0.3,0.5-0.4c0.1-0.1,0.3-0.4,0.4-0.7c0.1-0.3,0.1-0.5,0.1-0.8
	c0-0.3,0-0.5-0.1-0.8c-0.1-0.3-0.3-0.5-0.4-0.7c-0.1-0.1-0.4-0.4-0.5-0.4s-0.4-0.1-0.7-0.1c-0.3,0-0.5,0-0.7,0.1
	c-0.3,0.1-0.4,0.3-0.5,0.4c-0.1,0.1-0.3,0.4-0.4,0.7C78.5,101.7,78.4,101.9,78.4,102.3z M88.3,103l1.9-3.5h1v5.7h-1v-4l-1.6,3.1
	h-0.5l-1.6-3.3v4h-1v-5.7h1L88.3,103z M98.6,105.1h-1v-4.8h-2.7v4.9h-1v-5.7h4.6C98.6,99.5,98.6,105.1,98.6,105.1z M102.7,105.2
	c-0.3,0-0.5,0-0.8-0.1c-0.3-0.1-0.4-0.3-0.5-0.4c-0.1-0.1-0.3-0.4-0.4-0.5c-0.1-0.3-0.1-0.4-0.1-0.7c0-0.3,0-0.5,0.1-0.7
	c0.1-0.3,0.3-0.4,0.5-0.5c0.3-0.1,0.4-0.3,0.8-0.4c0.4-0.1,0.7-0.1,1-0.1c0.3,0,0.5,0,0.8,0.1c0.3,0,0.5,0.1,0.8,0.3v-0.4
	c0-0.4-0.1-0.8-0.4-1.1s-0.7-0.4-1.1-0.4c-0.5,0-1.2,0.3-1.8,0.7l-0.3-0.7c0.7-0.5,1.5-0.7,2.2-0.7c0.7,0,1.4,0.1,1.8,0.5
	c0.4,0.4,0.7,1,0.7,1.6v2.3c0,0.3,0.1,0.4,0.3,0.4v0.8c-0.1,0-0.1,0-0.3,0c0,0-0.1,0-0.3,0s-0.3,0-0.4-0.1c-0.1-0.1-0.1-0.3-0.1-0.4
	v-0.4c-0.3,0.4-0.5,0.5-1,0.8C103.5,105.1,103.1,105.2,102.7,105.2z M102.9,104.5c0.4,0,0.7,0,1-0.1c0.3-0.1,0.5-0.3,0.7-0.5
	c0.1-0.1,0.3-0.3,0.3-0.4v-0.8c-0.4-0.1-1-0.3-1.5-0.3c-0.5,0-0.8,0.1-1.2,0.3c-0.3,0.1-0.4,0.4-0.4,0.8c0,0.1,0,0.3,0.1,0.4
	c0,0.1,0.1,0.3,0.3,0.4c0.1,0.1,0.3,0.1,0.4,0.3C102.5,104.5,102.7,104.5,102.9,104.5z M109.3,101.8h2.9v-2.3h1v5.7h-1v-2.6h-2.9
	v2.6h-1v-5.7h1V101.8z M116.7,103.7l3.1-4.4h0.8v5.7h-1v-4.2l-3,4.2h-0.8v-5.7h1v4.4H116.7z M124.2,102.9c-0.3-0.1-0.5-0.3-0.8-0.5
	c-0.3-0.3-0.3-0.7-0.3-1.1c0-0.3,0-0.5,0.1-0.7c0.1-0.3,0.3-0.4,0.4-0.5c0.1-0.1,0.4-0.3,0.5-0.4c0.3-0.1,0.5-0.1,0.8-0.1h2.2v5.7
	h-1V103h-1.1l-1.2,2h-1.1L124.2,102.9z M126.2,102.2v-1.9h-1.1c-0.1,0-0.3,0-0.4,0c-0.1,0-0.3,0.1-0.3,0.1c-0.1,0.1-0.1,0.1-0.3,0.3
	c-0.1,0.1-0.1,0.3-0.1,0.4c0,0.3,0.1,0.5,0.3,0.7c0.1,0.1,0.4,0.3,0.7,0.3h1.2V102.2z"/>
</svg>
