<svg version="1.1" id="logo" xmlns="http://www.w3.org/2000/svg" xmlns:xlink="http://www.w3.org/1999/xlink" x="0px" y="0px"
	 viewBox="0 0 396.763 144.66" style="enable-background:new 0 0 396.763 144.66;">
<style type="text/css">
	.st0{fill:#843C2C;}
	.st1{fill:#ED652F;}
	.st2{fill:#F8C016;}
	.st3{fill:#5D2A1F;}
</style>
<g>
	<path class="st0" d="M273.423,54.78l-73.446-34.085L124.705,54.78H93.866L199.977,0l102.865,54.78H273.423z"/>
	<path class="st1" d="M249.076,62.49l-49.099-15.42l-50.519,15.42h-23.332l73.852-32.259l72.431,32.259H249.076z"/>
	<path class="st2" d="M199.977,53.968l48.288,16.84H151.69L199.977,53.968z"/>
</g>
<path class="st3" d="M-0.071,110.574h3.855v17.854h-3.855v5.478h12.782v-5.478h-2.638v-6.087h3.855l4.666,6.087h-3.246v5.478h14.811
	v-5.478H25.29l-7.304-9.739l6.492-8.116h4.666v-5.478H16.16v5.478h2.029l-4.666,6.492h-3.246v-6.29h2.638v-5.478H0.132v5.275H-0.071
	z M48.216,133.095l6.087,2.029l1.623-5.072l-3.855-1.217v-7.913c0-3.246-0.812-5.681-2.638-7.507
	c-1.826-1.623-4.261-2.638-7.507-2.638c-3.043,0-5.884,0.406-8.521,1.42l-1.014,5.478l5.072,0.609l0.406-2.232
	c1.217-0.406,2.435-0.609,3.652-0.609s2.232,0.406,3.043,1.42s1.217,2.232,1.217,4.058h-5.072c-3.043,0-5.275,0.609-6.898,1.826
	c-1.623,1.217-2.435,2.84-2.435,5.275c0,2.232,0.812,4.058,2.435,5.275s4.058,1.826,7.101,1.826
	C43.55,134.718,45.782,134.109,48.216,133.095L48.216,133.095z M40.912,124.777h5.072v4.261c-1.42,0.812-3.043,1.217-4.666,1.217
	c-2.435,0-3.449-0.812-3.449-2.638c0-1.014,0.203-1.623,0.812-2.232C39.289,124.979,39.898,124.777,40.912,124.777L40.912,124.777z
	 M55.926,144.66h14.405v-4.869h-4.058v-5.478c1.217,0.406,2.638,0.406,4.261,0.406c2.435,0,4.464-0.406,6.29-1.42
	c1.826-1.014,3.246-2.435,4.058-4.261c1.014-1.826,1.42-4.058,1.42-6.492c0-3.652-1.014-6.695-3.043-8.724
	c-2.029-2.029-4.666-3.246-8.116-3.246c-1.014,0-2.232,0.203-3.449,0.609c-1.217,0.406-2.435,1.014-3.449,1.826l-7.101-2.435
	l-1.623,4.869l4.666,1.623v22.318h-4.058L55.926,144.66L55.926,144.66z M70.331,130.052c-1.623,0-3.043-0.203-4.261-0.812v-11.768
	c0.609-0.609,1.42-1.014,2.029-1.217c0.812-0.406,1.623-0.406,2.435-0.406c1.623,0,2.84,0.609,3.855,1.826
	c0.812,1.217,1.42,3.043,1.42,5.275s-0.406,4.058-1.42,5.275C73.375,129.443,71.954,130.052,70.331,130.052L70.331,130.052z
	 M106.445,131.066l-2.029-3.652c-2.232,1.623-4.666,2.638-7.304,2.638c-1.826,0-3.246-0.406-4.464-1.217s-2.029-2.029-2.029-3.652
	h17.043c0.203-1.014,0.203-2.029,0.203-3.043c0-2.232-0.406-4.261-1.42-5.884c-1.014-1.623-2.232-3.043-4.058-3.855
	c-1.826-1.014-3.855-1.42-6.087-1.42s-4.261,0.406-6.087,1.42s-3.043,2.435-4.058,4.261c-1.217,1.623-1.623,3.855-1.623,6.29
	c0,2.232,0.609,4.464,1.623,6.087c1.014,1.826,2.435,3.246,4.464,4.261c1.826,1.014,4.058,1.42,6.695,1.42
	c1.623,0,3.246-0.406,4.869-1.014C103.402,133.298,105.025,132.283,106.445,131.066L106.445,131.066z M101.373,120.922H90.417
	c0-1.42,0.609-2.638,1.826-3.652c1.014-1.014,2.435-1.42,3.855-1.42c1.623,0,2.84,0.406,3.855,1.42
	C100.967,118.081,101.373,119.299,101.373,120.922L101.373,120.922z M135.459,116.661v-4.869h-24.347v4.869h3.855l-0.203,4.058
	c-0.203,2.232-0.406,4.058-0.812,5.275c-0.406,1.217-1.014,2.029-1.826,2.638c-0.812,0.609-2.232,0.812-3.855,0.609v4.869
	c0.812,0,1.42,0,1.826,0c3.246,0,5.681-1.014,7.101-3.043c1.42-2.029,2.435-5.072,2.638-9.333l0.406-5.275h5.072v12.173h-2.029
	v4.869h12.173v-4.869h-4.058v-12.173L135.459,116.661L135.459,116.661z M139.111,133.907h17.043c2.232,0,4.058-0.609,5.275-1.826
	s1.826-3.043,1.826-5.072c0-4.666-3.246-7.101-9.739-7.101h-3.855v-3.043h4.261v-4.869h-15.014v4.869h4.261v12.173h-4.261v4.869
	H139.111z M149.661,128.834v-4.464h4.261c2.029,0,3.043,0.609,3.043,2.029c0,0.812-0.203,1.217-0.812,1.623
	c-0.609,0.406-1.42,0.609-2.435,0.609L149.661,128.834L149.661,128.834z M179.891,115.849l0.812,4.058l5.275-1.217l-1.42-6.695
	c-2.435-1.014-5.072-1.42-7.507-1.42c-4.058,0-6.898,1.014-8.927,3.043c-2.029,2.029-3.043,5.072-3.043,9.13
	c0,3.855,1.014,6.695,3.043,8.724c2.029,2.029,5.072,3.043,8.724,3.043c1.826,0,3.246-0.406,4.666-1.014
	c1.42-0.609,3.043-1.623,4.666-2.84l-2.435-3.652c-2.435,1.623-4.666,2.435-6.898,2.435c-1.623,0-3.043-0.609-4.058-1.826
	c-1.014-1.217-1.623-2.84-1.623-5.072c0-2.435,0.406-4.464,1.42-5.681c1.014-1.217,2.435-1.826,4.261-1.826
	C177.862,115.444,178.877,115.647,179.891,115.849L179.891,115.849z M188.818,116.661h4.058v12.173h-4.058v4.869h11.768v-4.869
	h-1.42v-3.449h2.638l6.087,8.521h7.507v-4.869h-4.058l-4.464-6.087l4.666-6.29h3.652v-4.869H203.02v4.869h2.435l-2.84,3.855h-3.449
	v-3.855h1.42v-4.869h-11.768C188.818,111.792,188.818,116.661,188.818,116.661z M218.237,116.661h4.058v12.173h-4.058v4.869h9.942
	l8.521-15.217v10.347h-1.826v4.869h11.97v-4.869h-4.058v-12.173h4.058v-4.869h-9.942l-8.521,14.811v-9.942h1.826v-4.869h-11.97
	V116.661z M250.496,116.661h4.058v12.173h-4.058v4.869h9.942l8.521-15.217v10.347h-1.826v4.869h11.97v-4.869h-4.058v-12.173h4.058
	v-4.869h-9.942l-8.521,14.811v-9.942h1.826v-4.869h-11.97V116.661z M265.307,108.14c2.435,0,4.464-0.609,6.087-2.029
	c1.623-1.217,2.435-3.043,2.638-5.275l-4.058-0.406c0,1.217-0.406,2.029-1.217,2.84c-0.812,0.609-2.029,1.014-3.449,1.014
	c-1.42,0-2.638-0.406-3.449-1.014c-0.812-0.609-1.217-1.623-1.217-2.84l-4.058,0.406c0.203,2.232,1.217,3.855,2.638,5.275
	C260.844,107.531,262.873,108.14,265.307,108.14L265.307,108.14z M305.479,128.631h-3.855v11.97h5.072v-6.492h19.68v6.492h5.275
	v-11.97h-4.666v-17.854h4.666v-5.478h-27.39v5.478h5.072l-0.609,8.318c-0.203,2.029-0.406,3.855-1.014,5.275
	C307.102,125.791,306.291,127.211,305.479,128.631L305.479,128.631z M310.957,128.226c0.812-1.42,1.623-2.638,2.029-4.058
	c0.406-1.217,0.812-2.84,1.014-4.666l0.812-9.13h5.884v17.854H310.957z M345.651,110.98c-3.652,0-6.492,1.014-8.521,3.246
	c-2.029,2.029-3.043,5.072-3.043,8.927s1.014,6.695,3.043,8.927c2.029,2.029,4.869,3.043,8.521,3.043
	c3.855,0,6.695-1.014,8.724-3.043c2.029-2.029,3.043-5.072,3.043-8.927s-1.014-6.898-3.043-8.927
	C352.347,111.995,349.303,110.98,345.651,110.98L345.651,110.98z M345.854,115.647c1.826,0,3.246,0.609,4.261,1.826
	c1.014,1.217,1.42,3.043,1.42,5.275s-0.406,4.058-1.42,5.275c-1.014,1.217-2.435,1.826-4.261,1.826
	c-1.826,0-3.246-0.609-4.261-1.826s-1.42-3.043-1.42-5.275s0.406-4.058,1.42-5.275S344.028,115.647,345.854,115.647L345.854,115.647
	z M396.779,111.792h-12.985l-5.275,12.985l-5.884-12.985h-12.985v4.869h4.058v12.173h-4.058v4.869h11.97v-4.869h-1.826v-11.768
	l6.492,14.202h4.261l6.29-15.42v13.188h-2.029v4.869h11.97v-4.869h-4.058v-12.173h4.058
	C396.779,116.864,396.779,111.792,396.779,111.792z"/>
<g>
	<path class="st3" d="M146.464,88.374l4.922-5.528h2.354l-5.1,5.623l5.409,5.671h-2.378l-5.207-5.528h-0.024v5.528h-1.843V82.846
		h1.843v5.528H146.464z"/>
	<path class="st3" d="M166.94,88.505c0,0.888-0.127,1.696-0.38,2.425c-0.254,0.729-0.612,1.353-1.076,1.872
		c-0.464,0.519-1.024,0.921-1.682,1.207c-0.658,0.285-1.395,0.428-2.211,0.428c-0.84,0-1.591-0.143-2.253-0.428
		c-0.662-0.285-1.224-0.688-1.688-1.207s-0.818-1.143-1.064-1.872c-0.246-0.729-0.369-1.538-0.369-2.425
		c0-0.896,0.127-1.708,0.38-2.437c0.254-0.729,0.612-1.355,1.076-1.878c0.464-0.523,1.026-0.927,1.688-1.213
		c0.662-0.285,1.401-0.428,2.217-0.428c0.832,0,1.581,0.143,2.247,0.428c0.666,0.285,1.228,0.69,1.688,1.213
		c0.46,0.523,0.812,1.149,1.058,1.878C166.817,86.797,166.94,87.61,166.94,88.505z M165.014,88.505c0-0.697-0.085-1.318-0.256-1.86
		s-0.408-1.003-0.713-1.379c-0.305-0.376-0.668-0.662-1.088-0.856c-0.42-0.194-0.88-0.291-1.379-0.291s-0.959,0.097-1.379,0.291
		c-0.42,0.194-0.783,0.479-1.088,0.856c-0.305,0.376-0.543,0.836-0.713,1.379s-0.256,1.163-0.256,1.86
		c0,0.689,0.085,1.306,0.256,1.849c0.17,0.543,0.41,1.001,0.719,1.373s0.674,0.656,1.094,0.85c0.42,0.194,0.88,0.291,1.379,0.291
		s0.957-0.097,1.373-0.291c0.416-0.194,0.777-0.478,1.082-0.85s0.543-0.83,0.713-1.373
		C164.929,89.811,165.014,89.195,165.014,88.505z"/>
	<path class="st3" d="M176.495,94.14l-2.152-5.409c-0.458-1.133-0.926-2.346-1.407-3.638h-0.107
		c0.055,0.943,0.083,2.144,0.083,3.602v5.445h-1.843V82.846h2.611l2.027,5.136c0.484,1.213,0.91,2.346,1.276,3.4h0.083
		c0.389-1.086,0.815-2.219,1.276-3.4l2.039-5.136h2.611V94.14h-1.843v-5.445c0-1.3,0.028-2.5,0.083-3.602h-0.107
		c-0.331,0.903-0.8,2.116-1.407,3.638l-2.152,5.409H176.495z"/>
	<path class="st3" d="M189.584,84.523v9.617h-1.843V82.846h9.142V94.14h-1.843v-9.617H189.584z"/>
	<path class="st3" d="M208.278,92.892h-0.048c-0.151,0.19-0.341,0.378-0.571,0.565c-0.23,0.186-0.495,0.353-0.796,0.499
		c-0.301,0.147-0.63,0.264-0.987,0.351c-0.357,0.087-0.737,0.131-1.141,0.131c-0.547,0-1.048-0.081-1.504-0.244
		c-0.456-0.162-0.848-0.4-1.177-0.713c-0.329-0.313-0.584-0.695-0.767-1.147s-0.273-0.963-0.273-1.534
		c0-0.563,0.101-1.066,0.303-1.51c0.202-0.444,0.485-0.82,0.85-1.129c0.365-0.309,0.802-0.547,1.314-0.713
		c0.511-0.166,1.076-0.25,1.694-0.25c0.586,0.008,1.129,0.059,1.629,0.155c0.499,0.095,0.943,0.214,1.331,0.357h0.048v-0.785
		c0-0.309-0.02-0.583-0.059-0.82c-0.04-0.238-0.107-0.448-0.202-0.63c-0.206-0.38-0.535-0.695-0.987-0.945
		c-0.452-0.25-1.062-0.374-1.831-0.374c-0.571,0-1.108,0.053-1.611,0.16c-0.503,0.107-1.005,0.256-1.504,0.446v-1.545
		c0.19-0.095,0.414-0.184,0.672-0.267s0.529-0.155,0.814-0.214s0.586-0.105,0.903-0.137c0.317-0.032,0.634-0.048,0.951-0.048
		c1.141,0,2.074,0.202,2.8,0.606c0.725,0.404,1.246,0.939,1.563,1.605c0.119,0.254,0.202,0.533,0.254,0.838
		c0.052,0.305,0.079,0.64,0.079,1.005v7.537h-1.545L208.278,92.892z M208.182,89.183c-0.341-0.095-0.743-0.186-1.209-0.273
		c-0.464-0.087-0.977-0.135-1.538-0.143c-0.781,0-1.393,0.166-1.835,0.499c-0.442,0.333-0.662,0.844-0.662,1.534
		c0,0.349,0.055,0.654,0.164,0.915c0.111,0.262,0.264,0.478,0.456,0.648c0.194,0.17,0.422,0.297,0.688,0.38
		c0.264,0.083,0.545,0.125,0.846,0.125c0.394,0,0.761-0.057,1.1-0.172c0.339-0.115,0.642-0.252,0.905-0.41
		c0.266-0.159,0.489-0.317,0.676-0.476c0.184-0.159,0.321-0.281,0.408-0.369V89.183z"/>
	<path class="st3" d="M222.345,94.14v-5.052h-5.694v5.052h-1.843V82.846h1.843v4.66h5.694v-4.66h1.843V94.14H222.345z"/>
	<path class="st3" d="M230.587,94.14h-1.617V82.846h1.843v6.194c0,1.11-0.02,1.926-0.059,2.449h0.048
		c0.222-0.365,0.491-0.777,0.808-1.236c0.317-0.46,0.662-0.939,1.034-1.438l4.47-5.968h1.617V94.14h-1.843v-6.194
		c0-0.872,0.02-1.688,0.059-2.449H236.9c-0.222,0.365-0.493,0.777-0.814,1.236c-0.321,0.46-0.668,0.939-1.04,1.438L230.587,94.14z"
		/>
	<path class="st3" d="M243.313,86.508c0-0.705,0.174-1.347,0.523-1.926c0.349-0.579,0.876-1.022,1.581-1.331
		c0.301-0.135,0.652-0.236,1.052-0.303c0.4-0.067,0.886-0.101,1.456-0.101h4.185V94.14h-1.843v-4.41h-2.853l-2.651,4.41h-1.843
		l2.651-4.66c-0.357-0.087-0.674-0.224-0.951-0.41c-0.277-0.186-0.513-0.408-0.707-0.666c-0.194-0.258-0.343-0.549-0.446-0.874
		C243.365,87.205,243.313,86.865,243.313,86.508z M247.974,84.428c-0.38,0-0.701,0.018-0.963,0.053
		c-0.262,0.036-0.495,0.101-0.701,0.196c-0.333,0.151-0.594,0.371-0.785,0.66c-0.19,0.289-0.285,0.652-0.285,1.088
		c0,0.325,0.055,0.6,0.166,0.826c0.111,0.226,0.271,0.408,0.481,0.547s0.464,0.24,0.761,0.303c0.297,0.063,0.632,0.095,1.005,0.095
		h2.615v-3.769H247.974z"/>
</g>
</svg>
