<?xml version="1.0" encoding="utf-8"?>
<!-- Generator: Adobe Illustrator 18.0.0, SVG Export Plug-In . SVG Version: 6.00 Build 0)  -->
<!DOCTYPE svg PUBLIC "-//W3C//DTD SVG 1.1//EN" "http://www.w3.org/Graphics/SVG/1.1/DTD/svg11.dtd">
<svg version="1.1" id="Layer_1" xmlns="http://www.w3.org/2000/svg" xmlns:xlink="http://www.w3.org/1999/xlink" x="0px" y="0px"
	 width="195px" height="128.3px" viewBox="0 0 195 128.3" enable-background="new 0 0 195 128.3" xml:space="preserve">
<path fill="#843C2C" d="M134.5,43.3L98.3,26.5L61.2,43.3H46l52.3-27l50.7,27H134.5z"/>
<path fill="#ED652F" d="M122.5,47.1l-24.2-7.6l-24.9,7.6H61.9l36.4-15.9L134,47.1H122.5z"/>
<path fill="#F8C016" d="M98.3,42.9l23.8,8.3H74.5L98.3,42.9z"/>
<path fill="#5D2A1F" d="M29.3,73.9h1.9v8.8h-1.9v2.7h6.3v-2.7h-1.3v-3h1.9l2.3,3h-1.6v2.7h7.3v-2.7h-2.4l-3.6-4.8l3.2-4h2.3v-2.7
	h-6.4v2.7h1L36,77.1h-1.6V74h1.3v-2.7h-6.3v2.6H29.3z M53.1,85l3,1l0.8-2.5L55,82.9V79c0-1.6-0.4-2.8-1.3-3.7
	C52.8,74.5,51.6,74,50,74c-1.5,0-2.9,0.2-4.2,0.7l-0.5,2.7l2.5,0.3l0.2-1.1c0.6-0.2,1.2-0.3,1.8-0.3s1.1,0.2,1.5,0.7s0.6,1.1,0.6,2
	h-2.5c-1.5,0-2.6,0.3-3.4,0.9c-0.8,0.6-1.2,1.4-1.2,2.6c0,1.1,0.4,2,1.2,2.6s2,0.9,3.5,0.9C50.8,85.8,51.9,85.5,53.1,85L53.1,85z
	 M49.5,80.9H52V83c-0.7,0.4-1.5,0.6-2.3,0.6c-1.2,0-1.7-0.4-1.7-1.3c0-0.5,0.1-0.8,0.4-1.1C48.7,81,49,80.9,49.5,80.9L49.5,80.9z
	 M56.9,90.7H64v-2.4h-2v-2.7c0.6,0.2,1.3,0.2,2.1,0.2c1.2,0,2.2-0.2,3.1-0.7s1.6-1.2,2-2.1c0.5-0.9,0.7-2,0.7-3.2
	c0-1.8-0.5-3.3-1.5-4.3s-2.3-1.6-4-1.6c-0.5,0-1.1,0.1-1.7,0.3c-0.6,0.2-1.2,0.5-1.7,0.9l-3.5-1.2l-0.8,2.4l2.3,0.8v11h-2L56.9,90.7
	L56.9,90.7z M64,83.5c-0.8,0-1.5-0.1-2.1-0.4v-5.8c0.3-0.3,0.7-0.5,1-0.6c0.4-0.2,0.8-0.2,1.2-0.2c0.8,0,1.4,0.3,1.9,0.9
	c0.4,0.6,0.7,1.5,0.7,2.6s-0.2,2-0.7,2.6S64.8,83.5,64,83.5L64,83.5z M81.8,84l-1-1.8c-1.1,0.8-2.3,1.3-3.6,1.3
	c-0.9,0-1.6-0.2-2.2-0.6s-1-1-1-1.8h8.4c0.1-0.5,0.1-1,0.1-1.5c0-1.1-0.2-2.1-0.7-2.9s-1.1-1.5-2-1.9c-0.9-0.5-1.9-0.7-3-0.7
	s-2.1,0.2-3,0.7s-1.5,1.2-2,2.1C71.2,77.7,71,78.8,71,80c0,1.1,0.3,2.2,0.8,3c0.5,0.9,1.2,1.6,2.2,2.1c0.9,0.5,2,0.7,3.3,0.7
	c0.8,0,1.6-0.2,2.4-0.5C80.3,85.1,81.1,84.6,81.8,84L81.8,84z M79.3,79h-5.4c0-0.7,0.3-1.3,0.9-1.8c0.5-0.5,1.2-0.7,1.9-0.7
	c0.8,0,1.4,0.2,1.9,0.7C79.1,77.6,79.3,78.2,79.3,79L79.3,79z M96.1,76.9v-2.4h-12v2.4H86l-0.1,2c-0.1,1.1-0.2,2-0.4,2.6
	c-0.2,0.6-0.5,1-0.9,1.3s-1.1,0.4-1.9,0.3v2.4c0.4,0,0.7,0,0.9,0c1.6,0,2.8-0.5,3.5-1.5s1.2-2.5,1.3-4.6l0.2-2.6h2.5v6h-1v2.4h6
	v-2.4h-2v-6L96.1,76.9L96.1,76.9z M97.9,85.4h8.4c1.1,0,2-0.3,2.6-0.9s0.9-1.5,0.9-2.5c0-2.3-1.6-3.5-4.8-3.5h-1.9V77h2.1v-2.4h-7.4
	V77h2.1v6h-2.1v2.4H97.9z M103.1,82.9v-2.2h2.1c1,0,1.5,0.3,1.5,1c0,0.4-0.1,0.6-0.4,0.8c-0.3,0.2-0.7,0.3-1.2,0.3L103.1,82.9
	L103.1,82.9z M118,76.5l0.4,2l2.6-0.6l-0.7-3.3c-1.2-0.5-2.5-0.7-3.7-0.7c-2,0-3.4,0.5-4.4,1.5s-1.5,2.5-1.5,4.5
	c0,1.9,0.5,3.3,1.5,4.3s2.5,1.5,4.3,1.5c0.9,0,1.6-0.2,2.3-0.5c0.7-0.3,1.5-0.8,2.3-1.4l-1.2-1.8c-1.2,0.8-2.3,1.2-3.4,1.2
	c-0.8,0-1.5-0.3-2-0.9s-0.8-1.4-0.8-2.5c0-1.2,0.2-2.2,0.7-2.8c0.5-0.6,1.2-0.9,2.1-0.9C117,76.3,117.5,76.4,118,76.5L118,76.5z
	 M122.4,76.9h2v6h-2v2.4h5.8v-2.4h-0.7v-1.7h1.3l3,4.2h3.7V83h-2l-2.2-3l2.3-3.1h1.8v-2.4h-6v2.4h1.2l-1.4,1.9h-1.7v-1.9h0.7v-2.4
	h-5.8C122.4,74.5,122.4,76.9,122.4,76.9z M136.9,76.9h2v6h-2v2.4h4.9l4.2-7.5v5.1h-0.9v2.4h5.9v-2.4h-2v-6h2v-2.4h-4.9l-4.2,7.3
	v-4.9h0.9v-2.4h-5.9V76.9z M152.8,76.9h2v6h-2v2.4h4.9l4.2-7.5v5.1H161v2.4h5.9v-2.4h-2v-6h2v-2.4H162l-4.2,7.3v-4.9h0.9v-2.4h-5.9
	V76.9z M160.1,72.7c1.2,0,2.2-0.3,3-1c0.8-0.6,1.2-1.5,1.3-2.6l-2-0.2c0,0.6-0.2,1-0.6,1.4c-0.4,0.3-1,0.5-1.7,0.5s-1.3-0.2-1.7-0.5
	s-0.6-0.8-0.6-1.4l-2,0.2c0.1,1.1,0.6,1.9,1.3,2.6C157.9,72.4,158.9,72.7,160.1,72.7L160.1,72.7z M76.6,105.7h-1.9v5.9h2.5v-3.2h9.7
	v3.2h2.6v-5.9h-2.3v-8.8h2.3v-2.7H76v2.7h2.5l-0.3,4.1c-0.1,1-0.2,1.9-0.5,2.6C77.4,104.3,77,105,76.6,105.7L76.6,105.7z
	 M79.2,105.7c0.4-0.7,0.8-1.3,1-2c0.2-0.6,0.4-1.4,0.5-2.3l0.4-4.5H84v8.8H79.2z M96.4,97c-1.8,0-3.2,0.5-4.2,1.6
	c-1,1-1.5,2.5-1.5,4.4s0.5,3.3,1.5,4.4c1,1,2.4,1.5,4.2,1.5c1.9,0,3.3-0.5,4.3-1.5s1.5-2.5,1.5-4.4s-0.5-3.4-1.5-4.4
	C99.7,97.5,98.2,97,96.4,97L96.4,97z M96.4,99.5c0.9,0,1.6,0.3,2.1,0.9s0.7,1.5,0.7,2.6s-0.2,2-0.7,2.6s-1.2,0.9-2.1,0.9
	s-1.6-0.3-2.1-0.9s-0.7-1.5-0.7-2.6s0.2-2,0.7-2.6S95.5,99.5,96.4,99.5L96.4,99.5z M121.6,97.4h-6.4l-2.6,6.4l-2.9-6.4h-6.4v2.4h2v6
	h-2v2.4h5.9v-2.4h-0.9V100l3.2,7h2.1l3.1-7.6v6.5h-1v2.4h5.9v-2.4h-2v-6h2C121.6,99.9,121.6,97.4,121.6,97.4z"/>
<g>
	<path fill="#5D2A1F" d="M73.1,60.7h1.1L72,63.4l2.5,2.9h-1.1l-1.9-2.5h-0.7v2.5h-1v-5.7h1V63h0.5L73.1,60.7z"/>
	<path fill="#5D2A1F" d="M78.4,66.4c-0.4,0-0.8-0.1-1.2-0.3c-0.4-0.1-0.7-0.4-1-0.7c-0.3-0.3-0.4-0.5-0.5-1
		c-0.1-0.4-0.3-0.7-0.3-1.1c0-0.4,0.1-0.8,0.3-1.1c0.1-0.4,0.3-0.7,0.5-1s0.5-0.5,1-0.7c0.4-0.1,0.7-0.3,1.2-0.3
		c0.4,0,0.8,0.1,1.2,0.3c0.4,0.1,0.7,0.4,1,0.7s0.4,0.5,0.5,1s0.3,0.7,0.3,1.1c0,0.4-0.1,0.8-0.3,1.1c-0.1,0.4-0.3,0.7-0.5,1
		c-0.3,0.3-0.5,0.5-1,0.7C79.2,66.4,78.8,66.4,78.4,66.4z M76.5,63.5c0,0.3,0,0.5,0.1,0.8c0.1,0.3,0.3,0.4,0.4,0.7
		c0.1,0.1,0.4,0.3,0.5,0.4c0.1,0.1,0.4,0.1,0.7,0.1c0.3,0,0.5,0,0.7-0.1s0.4-0.3,0.5-0.4c0.1-0.1,0.3-0.4,0.4-0.7
		c0.1-0.3,0.1-0.5,0.1-0.8c0-0.3,0-0.5-0.1-0.8c-0.1-0.3-0.3-0.5-0.4-0.7c-0.1-0.1-0.4-0.4-0.5-0.4s-0.4-0.1-0.7-0.1
		c-0.3,0-0.5,0-0.7,0.1c-0.3,0.1-0.4,0.3-0.5,0.4c-0.1,0.1-0.3,0.4-0.4,0.7C76.6,62.9,76.5,63.1,76.5,63.5z"/>
	<path fill="#5D2A1F" d="M86.4,64.2l1.9-3.5h1v5.7h-1v-4l-1.6,3.1h-0.5l-1.6-3.3v4h-1v-5.7h1L86.4,64.2z"/>
	<path fill="#5D2A1F" d="M96.7,66.3h-1v-4.8H93v4.9h-1v-5.7h4.6C96.7,60.7,96.7,66.3,96.7,66.3z"/>
	<path fill="#5D2A1F" d="M100.8,66.4c-0.3,0-0.5,0-0.8-0.1c-0.3-0.1-0.4-0.3-0.5-0.4c-0.1-0.1-0.3-0.4-0.4-0.5
		c-0.1-0.3-0.1-0.4-0.1-0.7c0-0.3,0-0.5,0.1-0.7c0.1-0.3,0.3-0.4,0.5-0.5c0.3-0.1,0.4-0.3,0.8-0.4c0.4-0.1,0.7-0.1,1-0.1
		c0.3,0,0.5,0,0.8,0.1c0.3,0,0.5,0.1,0.8,0.3v-0.4c0-0.4-0.1-0.8-0.4-1.1c-0.3-0.3-0.7-0.4-1.1-0.4c-0.5,0-1.2,0.3-1.8,0.7l-0.3-0.7
		c0.7-0.5,1.5-0.7,2.2-0.7c0.7,0,1.4,0.1,1.8,0.5c0.4,0.4,0.7,1,0.7,1.6v2.3c0,0.3,0.1,0.4,0.3,0.4v0.8c-0.1,0-0.1,0-0.3,0
		c0,0-0.1,0-0.3,0s-0.3,0-0.4-0.1c-0.1-0.1-0.1-0.3-0.1-0.4v-0.4c-0.3,0.4-0.5,0.5-1,0.8C101.6,66.3,101.2,66.4,100.8,66.4z
		 M101,65.7c0.4,0,0.7,0,1-0.1c0.3-0.1,0.5-0.3,0.7-0.5c0.1-0.1,0.3-0.3,0.3-0.4v-0.8c-0.4-0.1-1-0.3-1.5-0.3
		c-0.5,0-0.8,0.1-1.2,0.3c-0.3,0.1-0.4,0.4-0.4,0.8c0,0.1,0,0.3,0.1,0.4c0,0.1,0.1,0.3,0.3,0.4c0.1,0.1,0.3,0.1,0.4,0.3
		C100.6,65.7,100.8,65.7,101,65.7z"/>
	<path fill="#5D2A1F" d="M107.4,63h2.9v-2.3h1v5.7h-1v-2.6h-2.9v2.6h-1v-5.7h1V63z"/>
	<path fill="#5D2A1F" d="M114.8,64.9l3.1-4.4h0.8v5.7h-1V62l-3,4.2H114v-5.7h1v4.4H114.8z"/>
	<path fill="#5D2A1F" d="M122.3,64.1c-0.3-0.1-0.5-0.3-0.8-0.5c-0.3-0.3-0.3-0.7-0.3-1.1c0-0.3,0-0.5,0.1-0.7
		c0.1-0.3,0.3-0.4,0.4-0.5c0.1-0.1,0.4-0.3,0.5-0.4c0.3-0.1,0.5-0.1,0.8-0.1h2.2v5.7h-1v-2.2h-1.1l-1.2,2h-1.1L122.3,64.1z
		 M124.3,63.4v-1.9h-1.1c-0.1,0-0.3,0-0.4,0c-0.1,0-0.3,0.1-0.3,0.1c-0.1,0.1-0.1,0.1-0.3,0.3c-0.1,0.1-0.1,0.3-0.1,0.4
		c0,0.3,0.1,0.5,0.3,0.7c0.1,0.1,0.4,0.3,0.7,0.3h1.2V63.4z"/>
</g>
</svg>
